# xmcd CD database file
#
# Track frame offsets:
#	150
#	25856
#	47479
#	69854
#	95341
#	129033
#	149896
#	166371
#	190867
#	209320
#	227929
#	247976
#	252816
#
# Disc length: 3676 seconds
#
# Revision: 0
# Processed by: cddbd v1.5.1PL0 Copyright (c) Steve Scherf et al.
# Submitted via: CDex 1.51
#
DISCID=ac0e5a0d
DTITLE=Various Artist - Viva Jazzanova II [CD1]
DYEAR=1900
DGENRE=Jazz
TTITLE0=Arturo O'Farill-Siboney
TTITLE1=Vince Guaralde and Bola Sete-Star Song
TTITLE2=Luiz Bonfa-Rio Acima
TTITLE3=Jorge Pardo-La Cigarra
TTITLE4=Manny Oquendo and Libre-Tu Me Perteneces
TTITLE5=Flora Purim-Bahia
TTITLE6=Ella Fitzgerald-Song Of The Jet (Samba Do Aviao)
TTITLE7=Chico O'Farill-Te Quireo
TTITLE8=Dom Um Ramao-Escravos De Jo
TTITLE9=Cal Tjader-Agua Dulce (Cool-Ade)
TTITLE10=Carlos Puebla-Amorosa Guajira
TTITLE11=Pucho and The Latin Soul Brothers-Guaguanco
TTITLE12=Pucho and The Latin Soul Brothers:-Ritmo Nueva York
EXTD=
EXTT0=
EXTT1=
EXTT2=
EXTT3=
EXTT4=
EXTT5=
EXTT6=
EXTT7=
EXTT8=
EXTT9=
EXTT10=
EXTT11=
EXTT12=
PLAYORDER=
